<svg width="25" height="25" viewBox="0 0 25 25" fill="none" xmlns="http://www.w3.org/2000/svg">
<path d="M16.4997 11.8698C16.6231 12.7021 16.481 13.552 16.0935 14.2988C15.706 15.0456 15.0929 15.6512 14.3413 16.0295C13.5898 16.4077 12.7382 16.5394 11.9075 16.4057C11.0768 16.2721 10.3095 15.8799 9.71455 15.285C9.11962 14.6901 8.72744 13.9227 8.59377 13.092C8.46011 12.2614 8.59177 11.4097 8.97003 10.6582C9.34829 9.90667 9.95389 9.29355 10.7007 8.90605C11.4475 8.51856 12.2975 8.3764 13.1297 8.49981C13.9786 8.6257 14.7646 9.02128 15.3714 9.62812C15.9782 10.235 16.3738 11.0209 16.4997 11.8698Z" stroke="black" stroke-width="2" stroke-linecap="round" stroke-linejoin="round"/>
<rect x="2.5" y="2.5" width="20" height="20" rx="10" stroke="black" stroke-width="2"/>
</svg>
